<?xml version="1.0" encoding="UTF-8"?>
<svg id="Camada_2" data-name="Camada 2" xmlns="http://www.w3.org/2000/svg" xmlns:xlink="http://www.w3.org/1999/xlink" viewBox="0 0 506.83 582.92">
  <defs>
    <style>
      .cls-1 {
        fill: #1e2128;
      }

      .cls-2, .cls-3, .cls-4, .cls-5, .cls-6, .cls-7, .cls-8 {
        fill: #fff;
      }

      .cls-3 {
        filter: url(#drop-shadow-3);
      }

      .cls-4 {
        filter: url(#drop-shadow-4);
      }

      .cls-5 {
        filter: url(#drop-shadow-5);
      }

      .cls-9 {
        fill: #db354d;
      }

      .cls-6 {
        filter: url(#drop-shadow-1);
      }

      .cls-7 {
        filter: url(#drop-shadow-2);
      }

      .cls-8 {
        stroke: #1d1d1b;
        stroke-miterlimit: 10;
      }

      .cls-10 {
        fill: #1d1d1b;
      }
    </style>
    <filter id="drop-shadow-1" x="272.41" y="98.46" width="126" height="148" filterUnits="userSpaceOnUse">
      <feOffset dx="7" dy="7"/>
      <feGaussianBlur result="blur" stdDeviation="5"/>
      <feFlood flood-color="#000" flood-opacity=".1"/>
      <feComposite in2="blur" operator="in"/>
      <feComposite in="SourceGraphic"/>
    </filter>
    <filter id="drop-shadow-2" x="209.41" y="93.46" width="104" height="139" filterUnits="userSpaceOnUse">
      <feOffset dx="7" dy="7"/>
      <feGaussianBlur result="blur-2" stdDeviation="5"/>
      <feFlood flood-color="#000" flood-opacity=".1"/>
      <feComposite in2="blur-2" operator="in"/>
      <feComposite in="SourceGraphic"/>
    </filter>
    <filter id="drop-shadow-3" x="124.41" y="98.46" width="127" height="148" filterUnits="userSpaceOnUse">
      <feOffset dx="7" dy="7"/>
      <feGaussianBlur result="blur-3" stdDeviation="5"/>
      <feFlood flood-color="#000" flood-opacity=".1"/>
      <feComposite in2="blur-3" operator="in"/>
      <feComposite in="SourceGraphic"/>
    </filter>
    <filter id="drop-shadow-4" x="47.41" y="178.46" width="134" height="81" filterUnits="userSpaceOnUse">
      <feOffset dx="7" dy="7"/>
      <feGaussianBlur result="blur-4" stdDeviation="5"/>
      <feFlood flood-color="#000" flood-opacity=".1"/>
      <feComposite in2="blur-4" operator="in"/>
      <feComposite in="SourceGraphic"/>
    </filter>
    <filter id="drop-shadow-5" x="343.41" y="176.46" width="133" height="81" filterUnits="userSpaceOnUse">
      <feOffset dx="7" dy="7"/>
      <feGaussianBlur result="blur-5" stdDeviation="5"/>
      <feFlood flood-color="#000" flood-opacity=".1"/>
      <feComposite in2="blur-5" operator="in"/>
      <feComposite in="SourceGraphic"/>
    </filter>
  </defs>
  <g id="Camada_1-2" data-name="Camada 1">
    <polygon class="cls-10" points="506.83 435.45 255.42 582.92 2.01 438.93 0 147.47 251.41 0 504.82 143.99 506.83 435.45"/>
    <polygon class="cls-2" points="497.52 430.16 255.35 572.21 11.24 433.51 9.31 152.76 251.48 10.71 495.58 149.41 497.52 430.16"/>
    <polygon class="cls-9" points="484.5 422.76 255.24 557.24 24.15 425.94 22.32 160.15 251.58 25.67 482.67 156.98 484.5 422.76"/>
    <g id="Camada_4" data-name="Camada 4">
      <polygon class="cls-1" points="51.6 228.66 51.27 377.63 254.79 480.79 453.94 368.61 453.94 224.95 253.69 169.01 51.6 228.66"/>
      <g>
        <g>
          <rect class="cls-6" x="291.98" y="111.47" width="73.11" height="107.97" rx="15.09" ry="15.09" transform="translate(587.63 426.55) rotate(-161.51)"/>
          <path class="cls-9" d="M313.14,123.15l5.3-5.78.15-.43-3.79-1.34,1.29-3.65,7.87,2.79-1.36,3.85-5.84,6.76-3.62-2.18Z"/>
          <path class="cls-9" d="M343.01,206.99l.44,8.93-1.29,3.87-7.92-2.65,1.23-3.68,3.82,1.28.15-.44-.62-7.82,4.19.51Z"/>
          <path class="cls-9" d="M321.84,187.28l-.52-2.15c-1.87-7.65-5.55-14.19-8.81-19.96-4.23-7.51-7.89-13.99-5.82-20.17,1.33-3.98,4.13-7.2,7.88-9.07,3.75-1.87,8.01-2.17,11.99-.84,3.48,1.16,6.33,3.57,8.23,6.96.56.99.96,1.93,1.24,2.72.69-.46,1.56-.97,2.59-1.43,5.44-2.42,11.4-1.59,16.37,2.57.07.06.15.13.21.19,4.63,4.54,6.07,10.82,4.16,16.52-2.07,6.18-8.89,9.17-16.78,12.62-6.07,2.65-12.95,5.66-19.04,10.65l-1.71,1.4Z"/>
        </g>
        <g>
          <rect class="cls-7" x="217.52" y="102.14" width="73.11" height="107.97" rx="15.09" ry="15.09"/>
          <path d="M226.26,110.05h5.06l2.18,9.66h-3.37l-.27-1.11h-2.21l-.23,1.11h-3.29l2.13-9.66ZM229.5,116.05l-.52-3.37h-.36l-.55,3.37h1.43Z"/>
          <path class="cls-1" d="M264.39,182h-19.26c-.93,0-1.75-.63-1.98-1.54-.23-.9.17-1.85.99-2.3,1.81-1,3.35-2.72,4.6-5.11,1.01-1.94,1.8-4.32,2.32-6.96-1.9.99-4,1.5-6.17,1.5-3.58,0-6.94-1.39-9.47-3.92-2.53-2.53-3.92-5.89-3.92-9.47,0-5.58,4.63-9.76,9.98-14.6,4.04-3.65,8.62-7.79,12.05-13.24l1.33-2.12,1.33,2.12c3.44,5.45,8.01,9.59,12.05,13.24,5.36,4.84,9.98,9.02,9.98,14.6,0,3.58-1.39,6.94-3.92,9.47-2.53,2.53-5.89,3.92-9.47,3.92-2.26,0-4.43-.55-6.38-1.61.51,2.66,1.3,5.06,2.31,7.02,1.25,2.42,2.8,4.16,4.62,5.17.82.45,1.23,1.4.99,2.31-.23.9-1.05,1.53-1.98,1.53Z"/>
          <path d="M275.29,194.56h3.29l.23,1.11h2.21l.27-1.11h3.37l-2.18,9.66h-5.06l-2.13-9.66ZM279.25,198.22l.55,3.37h.36l.52-3.37h-1.43Z"/>
        </g>
        <g>
          <rect class="cls-3" x="144.62" y="111.47" width="73.11" height="107.97" rx="15.09" ry="15.09" transform="translate(-43.12 65.99) rotate(-18.49)"/>
          <path class="cls-9" d="M142.87,143.21l.62-7.82-.15-.44-3.82,1.28-1.23-3.68,7.91-2.65,1.29,3.87-.44,8.93-4.19.51Z"/>
          <path class="cls-9" d="M191.47,193.47l-2.32-2.52s-2.97-3.18-8.19-6.78c-3.06-2.11-6.29-3.96-9.6-5.5-4.13-1.92-8.41-3.36-12.71-4.28l-2.56-.55,1.71-1.98c2.88-3.33,5.43-7.05,7.58-11.07,1.72-3.22,3.19-6.65,4.37-10.17,2-6.02,2.46-10.3,2.46-10.34l.35-3.41,2.32,2.52s2.97,3.18,8.19,6.78c3.06,2.11,6.29,3.96,9.6,5.5,4.13,1.92,8.41,3.36,12.71,4.28l2.56.55-1.71,1.98c-2.88,3.33-5.43,7.05-7.58,11.07-1.72,3.22-3.19,6.65-4.37,10.17-2,6.02-2.46,10.3-2.46,10.34l-.35,3.41Z"/>
          <path class="cls-9" d="M216.47,192.88l6.3,6.34,1.63,3.74-7.65,3.33-1.55-3.55,3.69-1.61-.18-.42-5.69-5.4,3.45-2.43Z"/>
        </g>
        <polyline class="cls-4" points="149.93 187.28 56.01 214.38 85.56 218.8 67.36 237 158.53 212.98"/>
        <polyline class="cls-5" points="360.09 185.25 454.01 212.34 424.47 216.77 442.66 234.96 351.5 210.95"/>
      </g>
      <g id="Camada_2-2" data-name="Camada 2">
        <g>
          <g>
            <path class="cls-8" d="M79.51,260.12c0-14.61,3.54-19.15,16.38-19.15,3.04,0,8.25.83,11.35,1.49l-.33,9.91c-1.94-.22-5.59-.55-8.47-.55-4.93,0-5.98,1-5.98,8.3s1.11,8.52,5.98,8.52c2.88,0,6.59-.17,8.63-.33l.17,9.74c-2.55.61-7.47,1.44-11.9,1.44-12.18,0-15.83-4.32-15.83-19.37Z"/>
            <path class="cls-8" d="M115.93,241.7h19.43l8.36,37.08h-12.95l-1.05-4.26h-8.47l-.89,4.26h-12.62l8.19-37.08ZM128.38,264.72l-1.99-12.95h-1.38l-2.1,12.95h5.48Z"/>
            <path class="cls-8" d="M145.04,241.7h19.09l2.88,14.17,2.38-14.17h19.65v37.08h-12.84v-19.09h-.61l-3.21,18.71h-10.74l-3.15-18.71h-.61v19.09h-12.84v-37.08Z"/>
            <path class="cls-8" d="M192.36,241.7h14.56c11.01,0,16.82,2.77,16.82,14.44s-5.76,14.78-16.82,14.78h-1.72v7.86h-12.84v-37.08ZM206.36,260.79c3.15,0,4.43-1.22,4.43-4.59,0-3.54-1.22-4.37-4.43-4.37h-1.16v8.97h1.16Z"/>
            <path class="cls-8" d="M226.23,241.7h27.78v10.24h-14.94v3.15h11.62v10.13h-11.62v3.32h14.94v10.24h-27.78v-37.08Z"/>
            <path class="cls-8" d="M255.34,260.24c0-13.5,5.31-19.26,17.66-19.26s17.65,5.76,17.65,19.26-5.31,19.26-17.65,19.26-17.66-5.76-17.66-19.26ZM277.7,260.24c0-5.7-.44-8.85-4.7-8.85s-4.71,3.15-4.71,8.85.61,8.85,4.71,8.85,4.7-3.21,4.7-8.85Z"/>
            <path class="cls-8" d="M293.19,241.7h12.62l8.52,14.06h.77v-14.06h12.84v37.08h-12.67l-8.41-15.11h-.83v15.11h-12.84v-37.08Z"/>
            <path class="cls-8" d="M337.52,241.7h19.43l8.36,37.08h-12.95l-1.05-4.26h-8.47l-.89,4.26h-12.62l8.19-37.08ZM349.98,264.72l-1.99-12.95h-1.38l-2.1,12.95h5.48Z"/>
            <path class="cls-8" d="M369.95,252.16h-7.64v-10.46h27.67v10.46h-7.19v26.62h-12.84v-26.62Z"/>
            <path class="cls-8" d="M390.76,260.24c0-13.5,5.31-19.26,17.65-19.26s17.65,5.76,17.65,19.26-5.31,19.26-17.65,19.26-17.65-5.76-17.65-19.26ZM413.12,260.24c0-5.7-.44-8.85-4.7-8.85s-4.7,3.15-4.7,8.85.61,8.85,4.7,8.85,4.7-3.21,4.7-8.85Z"/>
          </g>
          <g>
            <path class="cls-8" d="M80.07,288.33h22.62c18.63,0,25.98,8.15,25.98,25.98s-6.56,27.58-25.18,27.58h-23.42v-53.56ZM101.9,326.78c7.59,0,8.07-4.64,8.07-12.47s-.88-10.87-8.07-10.87h-3.28v23.34h3.28Z"/>
            <path class="cls-8" d="M132.36,288.33h40.13v14.79h-21.58v4.56h16.79v14.63h-16.79v4.8h21.58v14.79h-40.13v-53.56Z"/>
            <path class="cls-8" d="M202.78,303.44h-11.03v-15.11h39.97v15.11h-10.39v38.45h-18.55v-38.45Z"/>
            <path class="cls-8" d="M234.92,288.33h22.54c15.59,0,23.1,3.68,23.1,19.75,0,7.51-2.08,12.47-5.92,15.59l5.28,18.23h-18.87l-2.96-13.83h-4.64v13.83h-18.55v-53.56ZM257.94,313.43c2.64,0,3.92-2,3.92-5.36s-1.36-5.12-4.4-5.12h-4.08v10.47h4.56Z"/>
            <path class="cls-8" d="M283.92,322.7v-34.38h18.55v35.09c0,3.04,1.36,4.24,5.04,4.24s4.96-1.2,4.96-4.24v-35.09h18.55v34.06c0,15.59-7.92,20.54-23.5,20.54s-23.58-4.64-23.58-20.22Z"/>
            <path class="cls-8" d="M334.52,314.95c0-21.1,5.12-27.66,23.66-27.66,4.4,0,11.91,1.2,16.39,2.16l-.48,14.31c-2.8-.32-8.07-.8-12.23-.8-7.11,0-8.63,1.44-8.63,11.99s1.6,12.31,8.63,12.31c4.16,0,9.51-.24,12.47-.48l.24,14.07c-3.68.88-10.79,2.08-17.19,2.08-17.59,0-22.86-6.24-22.86-27.98Z"/>
            <path class="cls-8" d="M376.25,315.11c0-19.51,7.67-27.82,25.5-27.82s25.5,8.31,25.5,27.82-7.67,27.82-25.5,27.82-25.5-8.31-25.5-27.82ZM408.55,315.11c0-8.23-.64-12.79-6.79-12.79s-6.79,4.56-6.79,12.79.88,12.79,6.79,12.79,6.79-4.64,6.79-12.79Z"/>
          </g>
          <g>
            <path class="cls-8" d="M154.77,349.82h9.79c8.06,0,11.24,3.53,11.24,11.24s-2.84,11.93-10.9,11.93h-10.14v-23.18ZM164.22,366.46c3.29,0,3.49-2.01,3.49-5.4s-.38-4.7-3.49-4.7h-1.42v10.1h1.42Z"/>
            <path class="cls-8" d="M176.88,364.6c0-6.09,2.63-9.51,9.06-9.51,5.98,0,9.03,2.53,9.03,8.03l-.35,3.42h-10c.03.87.52,1.21,1.69,1.21,2.32,0,6.02-.17,8.13-.31l.17,5.02c-1.97.42-5.74,1-8.86,1-6.57,0-8.89-2.73-8.89-8.86ZM187.22,362.31c0-1.31-.35-1.83-1.28-1.83-1.04,0-1.31.55-1.35,1.83h2.63Z"/>
            <path class="cls-8" d="M195.28,355.53h8.23l1.25,11h.45l1.18-11h7.75l-2.94,17.47h-12.97l-2.94-17.47Z"/>
            <path class="cls-8" d="M226.69,356.36h-4.77v-6.54h17.3v6.54h-4.5v16.64h-8.03v-16.64Z"/>
            <path class="cls-8" d="M240.52,355.53h7.75v1.63c.93-.9,2.59-2.08,3.67-2.08v7.2c-.97,0-2.66.73-3.67,1.25v9.48h-7.75v-17.47Z"/>
            <path class="cls-8" d="M253.22,349.13h7.82v5.29h-7.82v-5.29ZM253.25,355.53h7.75v17.47h-7.75v-17.47Z"/>
            <path class="cls-8" d="M262.94,349.13h7.75v23.87h-7.75v-23.87Z"/>
            <path class="cls-8" d="M272.62,349.13h7.75v6.54c1.04-.24,2.77-.59,3.7-.59,5.02,0,6.78,2.32,6.78,8.89v9.03h-7.75v-8.23c0-2.11-.38-3.01-1.31-3.01-.42,0-1.07.1-1.42.21v11.04h-7.75v-23.87Z"/>
            <path class="cls-8" d="M291.99,367.57c0-4.53,2.84-5.22,7.33-5.4l2.49-.1v-.31c0-.48-.59-.66-1.49-.66-2.25,0-5.54.24-7.4.45l-.17-5.26c1.97-.52,5.57-1.21,8.34-1.21,5.02,0,8.48,1.07,8.48,6.09v6.57c.14.1.59.31.83.38l-.1,4.91c-1.18.17-2.94.42-3.56.42-1.87,0-3.01-.69-3.36-1.21-.93.52-2.91,1.21-4.98,1.21-4.36,0-6.4-1.76-6.4-5.88ZM301.81,367.61v-1.28l-1.18.07c-.55.04-.9.42-.9.97,0,.48.21.76.76.76.52,0,1.07-.31,1.31-.52Z"/>
            <path class="cls-8" d="M311.67,372.52l.17-5.22c1.83.24,4.88.59,6.47.59.83,0,1.18-.07,1.18-.31,0-.17-.45-.24-2.53-.52-3.87-.52-5.4-1.97-5.4-5.6,0-5.02,3.25-6.37,7.75-6.37,3.22,0,6.29.52,7.68.9l-.28,5.43c-1.83-.21-4.84-.48-6.3-.48-.8,0-1.11.07-1.11.28,0,.17.28.24,2.25.45,4.22.45,5.67,1.9,5.67,5.71,0,4.43-2.63,6.09-7.68,6.09-3.56,0-6.61-.52-7.89-.93Z"/>
            <path class="cls-8" d="M336.47,372.55l.21-6.05c1.7.14,4.53.35,6.09.35,1.45,0,2.39-.07,2.39-1.11,0-.73-.42-1-1.83-1.14h-4.88v-6.12h4.57c1.35,0,1.87-.31,1.87-1.07,0-.83-.93-1.04-2.39-1.04-1.73,0-4.25.17-5.67.31l-.17-5.92c1.7-.42,4.63-1,6.4-1,6.54,0,9.69,1.52,9.69,6.57,0,2.56-.55,3.63-2.11,4.74,1.56,1.21,2.42,2.21,2.42,4.77,0,6.02-3.29,7.61-9.2,7.61-2.35,0-5.57-.52-7.37-.9Z"/>
          </g>
          <rect class="cls-8" x="80.07" y="360.54" width="61.4" height="4.1"/>
          <rect class="cls-8" x="365.86" y="360.54" width="61.4" height="4.1"/>
        </g>
      </g>
    </g>
  </g>
</svg>